<mxfile host="app.diagrams.net" agent="Mozilla/5.0 (Windows NT 10.0; Win64; x64; rv:131.0) Gecko/20100101 Firefox/131.0" version="24.7.17">
  <diagram name="Page-1" id="rp1sP4c0-P565sFG23eK">
    <mxGraphModel dx="2456" dy="2266" grid="1" gridSize="10" guides="1" tooltips="1" connect="1" arrows="1" fold="1" page="1" pageScale="1" pageWidth="850" pageHeight="1100" math="0" shadow="0">
      <root>
        <mxCell id="0" />
        <mxCell id="1" parent="0" />
        <mxCell id="lSKdBiCeqk-yjl67UDXg-8" style="edgeStyle=orthogonalEdgeStyle;rounded=0;orthogonalLoop=1;jettySize=auto;html=1;" parent="1" source="lSKdBiCeqk-yjl67UDXg-1" target="lSKdBiCeqk-yjl67UDXg-3" edge="1">
          <mxGeometry relative="1" as="geometry" />
        </mxCell>
        <mxCell id="lSKdBiCeqk-yjl67UDXg-1" value="Actor" style="shape=umlActor;verticalLabelPosition=bottom;verticalAlign=top;html=1;outlineConnect=0;" parent="1" vertex="1">
          <mxGeometry x="100" y="240" width="30" height="60" as="geometry" />
        </mxCell>
        <mxCell id="lSKdBiCeqk-yjl67UDXg-2" value="MashupAPI" style="swimlane;whiteSpace=wrap;html=1;" parent="1" vertex="1">
          <mxGeometry x="250" y="180" width="495" height="430" as="geometry" />
        </mxCell>
        <mxCell id="lSKdBiCeqk-yjl67UDXg-10" style="edgeStyle=orthogonalEdgeStyle;rounded=0;orthogonalLoop=1;jettySize=auto;html=1;entryX=0;entryY=0.5;entryDx=0;entryDy=0;" parent="lSKdBiCeqk-yjl67UDXg-2" source="lSKdBiCeqk-yjl67UDXg-3" target="lSKdBiCeqk-yjl67UDXg-5" edge="1">
          <mxGeometry relative="1" as="geometry">
            <Array as="points">
              <mxPoint x="190" y="90" />
              <mxPoint x="190" y="180" />
            </Array>
          </mxGeometry>
        </mxCell>
        <mxCell id="lSKdBiCeqk-yjl67UDXg-11" style="edgeStyle=orthogonalEdgeStyle;rounded=0;orthogonalLoop=1;jettySize=auto;html=1;entryX=0;entryY=0.5;entryDx=0;entryDy=0;" parent="lSKdBiCeqk-yjl67UDXg-2" source="lSKdBiCeqk-yjl67UDXg-3" target="lSKdBiCeqk-yjl67UDXg-6" edge="1">
          <mxGeometry relative="1" as="geometry">
            <Array as="points">
              <mxPoint x="190" y="90" />
              <mxPoint x="190" y="270" />
            </Array>
          </mxGeometry>
        </mxCell>
        <mxCell id="lSKdBiCeqk-yjl67UDXg-12" style="edgeStyle=orthogonalEdgeStyle;rounded=0;orthogonalLoop=1;jettySize=auto;html=1;entryX=0;entryY=0.5;entryDx=0;entryDy=0;" parent="lSKdBiCeqk-yjl67UDXg-2" source="lSKdBiCeqk-yjl67UDXg-3" target="lSKdBiCeqk-yjl67UDXg-7" edge="1">
          <mxGeometry relative="1" as="geometry">
            <Array as="points">
              <mxPoint x="190" y="90" />
              <mxPoint x="190" y="360" />
            </Array>
          </mxGeometry>
        </mxCell>
        <mxCell id="5Zqqs3O7W4hkUZBtLrMO-10" style="edgeStyle=orthogonalEdgeStyle;rounded=0;orthogonalLoop=1;jettySize=auto;html=1;startArrow=classic;startFill=1;" edge="1" parent="lSKdBiCeqk-yjl67UDXg-2" source="lSKdBiCeqk-yjl67UDXg-3" target="5Zqqs3O7W4hkUZBtLrMO-9">
          <mxGeometry relative="1" as="geometry" />
        </mxCell>
        <mxCell id="lSKdBiCeqk-yjl67UDXg-3" value="Mashup" style="rounded=1;whiteSpace=wrap;html=1;" parent="lSKdBiCeqk-yjl67UDXg-2" vertex="1">
          <mxGeometry x="45" y="60" width="120" height="60" as="geometry" />
        </mxCell>
        <mxCell id="lSKdBiCeqk-yjl67UDXg-4" value="Cache" style="shape=cylinder3;whiteSpace=wrap;html=1;boundedLbl=1;backgroundOutline=1;size=15;" parent="lSKdBiCeqk-yjl67UDXg-2" vertex="1">
          <mxGeometry x="410" y="230" width="60" height="80" as="geometry" />
        </mxCell>
        <mxCell id="5Zqqs3O7W4hkUZBtLrMO-1" style="edgeStyle=orthogonalEdgeStyle;rounded=0;orthogonalLoop=1;jettySize=auto;html=1;" edge="1" parent="lSKdBiCeqk-yjl67UDXg-2" source="lSKdBiCeqk-yjl67UDXg-5" target="lSKdBiCeqk-yjl67UDXg-4">
          <mxGeometry relative="1" as="geometry" />
        </mxCell>
        <mxCell id="lSKdBiCeqk-yjl67UDXg-5" value="WikiData" style="rounded=1;whiteSpace=wrap;html=1;" parent="lSKdBiCeqk-yjl67UDXg-2" vertex="1">
          <mxGeometry x="245" y="150" width="120" height="60" as="geometry" />
        </mxCell>
        <mxCell id="5Zqqs3O7W4hkUZBtLrMO-2" style="edgeStyle=orthogonalEdgeStyle;rounded=0;orthogonalLoop=1;jettySize=auto;html=1;" edge="1" parent="lSKdBiCeqk-yjl67UDXg-2" source="lSKdBiCeqk-yjl67UDXg-6" target="lSKdBiCeqk-yjl67UDXg-4">
          <mxGeometry relative="1" as="geometry" />
        </mxCell>
        <mxCell id="lSKdBiCeqk-yjl67UDXg-6" value="Wikipedia" style="rounded=1;whiteSpace=wrap;html=1;" parent="lSKdBiCeqk-yjl67UDXg-2" vertex="1">
          <mxGeometry x="245" y="240" width="120" height="60" as="geometry" />
        </mxCell>
        <mxCell id="lSKdBiCeqk-yjl67UDXg-7" value="CoverArt" style="rounded=1;whiteSpace=wrap;html=1;" parent="lSKdBiCeqk-yjl67UDXg-2" vertex="1">
          <mxGeometry x="245" y="330" width="120" height="60" as="geometry" />
        </mxCell>
        <mxCell id="5Zqqs3O7W4hkUZBtLrMO-3" style="edgeStyle=orthogonalEdgeStyle;rounded=0;orthogonalLoop=1;jettySize=auto;html=1;entryX=0.5;entryY=1;entryDx=0;entryDy=0;entryPerimeter=0;" edge="1" parent="lSKdBiCeqk-yjl67UDXg-2" source="lSKdBiCeqk-yjl67UDXg-7" target="lSKdBiCeqk-yjl67UDXg-4">
          <mxGeometry relative="1" as="geometry" />
        </mxCell>
        <mxCell id="5Zqqs3O7W4hkUZBtLrMO-11" style="edgeStyle=orthogonalEdgeStyle;rounded=0;orthogonalLoop=1;jettySize=auto;html=1;" edge="1" parent="lSKdBiCeqk-yjl67UDXg-2" source="5Zqqs3O7W4hkUZBtLrMO-9" target="lSKdBiCeqk-yjl67UDXg-4">
          <mxGeometry relative="1" as="geometry" />
        </mxCell>
        <mxCell id="5Zqqs3O7W4hkUZBtLrMO-9" value="MusicBrainz" style="rounded=1;whiteSpace=wrap;html=1;" vertex="1" parent="lSKdBiCeqk-yjl67UDXg-2">
          <mxGeometry x="240" y="60" width="120" height="60" as="geometry" />
        </mxCell>
        <mxCell id="5Zqqs3O7W4hkUZBtLrMO-13" style="edgeStyle=orthogonalEdgeStyle;rounded=0;orthogonalLoop=1;jettySize=auto;html=1;entryX=0.625;entryY=0.2;entryDx=0;entryDy=0;entryPerimeter=0;exitX=0.5;exitY=1;exitDx=0;exitDy=0;dashed=1;jumpStyle=arc;" edge="1" parent="lSKdBiCeqk-yjl67UDXg-2" source="lSKdBiCeqk-yjl67UDXg-6" target="5Zqqs3O7W4hkUZBtLrMO-7">
          <mxGeometry relative="1" as="geometry">
            <Array as="points">
              <mxPoint x="305" y="320" />
              <mxPoint x="380" y="320" />
              <mxPoint x="380" y="450" />
              <mxPoint x="335" y="450" />
            </Array>
          </mxGeometry>
        </mxCell>
        <mxCell id="5Zqqs3O7W4hkUZBtLrMO-4" value="MusicBrainz" style="ellipse;shape=cloud;whiteSpace=wrap;html=1;" vertex="1" parent="1">
          <mxGeometry x="250" y="640" width="120" height="80" as="geometry" />
        </mxCell>
        <mxCell id="5Zqqs3O7W4hkUZBtLrMO-5" value="WikiData" style="ellipse;shape=cloud;whiteSpace=wrap;html=1;" vertex="1" parent="1">
          <mxGeometry x="380" y="640" width="120" height="80" as="geometry" />
        </mxCell>
        <mxCell id="5Zqqs3O7W4hkUZBtLrMO-7" value="Wikipedia" style="ellipse;shape=cloud;whiteSpace=wrap;html=1;" vertex="1" parent="1">
          <mxGeometry x="510" y="640" width="120" height="80" as="geometry" />
        </mxCell>
        <mxCell id="5Zqqs3O7W4hkUZBtLrMO-8" value="Cover Art Archive" style="ellipse;shape=cloud;whiteSpace=wrap;html=1;" vertex="1" parent="1">
          <mxGeometry x="630" y="640" width="120" height="80" as="geometry" />
        </mxCell>
        <mxCell id="5Zqqs3O7W4hkUZBtLrMO-12" style="edgeStyle=orthogonalEdgeStyle;rounded=0;orthogonalLoop=1;jettySize=auto;html=1;entryX=0.625;entryY=0.2;entryDx=0;entryDy=0;entryPerimeter=0;dashed=1;jumpStyle=arc;" edge="1" parent="1" source="lSKdBiCeqk-yjl67UDXg-7" target="5Zqqs3O7W4hkUZBtLrMO-8">
          <mxGeometry relative="1" as="geometry">
            <Array as="points">
              <mxPoint x="545" y="580" />
              <mxPoint x="705" y="580" />
            </Array>
          </mxGeometry>
        </mxCell>
        <mxCell id="5Zqqs3O7W4hkUZBtLrMO-14" style="edgeStyle=orthogonalEdgeStyle;rounded=0;orthogonalLoop=1;jettySize=auto;html=1;entryX=0.625;entryY=0.2;entryDx=0;entryDy=0;entryPerimeter=0;dashed=1;jumpStyle=arc;" edge="1" parent="1" source="lSKdBiCeqk-yjl67UDXg-5" target="5Zqqs3O7W4hkUZBtLrMO-5">
          <mxGeometry relative="1" as="geometry">
            <Array as="points">
              <mxPoint x="555" y="410" />
              <mxPoint x="470" y="410" />
              <mxPoint x="470" y="630" />
              <mxPoint x="455" y="630" />
            </Array>
          </mxGeometry>
        </mxCell>
        <mxCell id="5Zqqs3O7W4hkUZBtLrMO-16" style="edgeStyle=orthogonalEdgeStyle;rounded=0;orthogonalLoop=1;jettySize=auto;html=1;entryX=0.625;entryY=0.2;entryDx=0;entryDy=0;entryPerimeter=0;exitX=0.5;exitY=1;exitDx=0;exitDy=0;dashed=1;jumpStyle=arc;" edge="1" parent="1" source="5Zqqs3O7W4hkUZBtLrMO-9" target="5Zqqs3O7W4hkUZBtLrMO-4">
          <mxGeometry relative="1" as="geometry">
            <mxPoint x="550" y="310" as="sourcePoint" />
            <Array as="points">
              <mxPoint x="550" y="320" />
              <mxPoint x="450" y="320" />
              <mxPoint x="450" y="510" />
              <mxPoint x="325" y="510" />
            </Array>
          </mxGeometry>
        </mxCell>
        <mxCell id="5Zqqs3O7W4hkUZBtLrMO-34" style="edgeStyle=orthogonalEdgeStyle;rounded=0;orthogonalLoop=1;jettySize=auto;html=1;exitX=0.5;exitY=0.5;exitDx=0;exitDy=0;exitPerimeter=0;entryX=0;entryY=0.5;entryDx=0;entryDy=0;" edge="1" parent="1" source="5Zqqs3O7W4hkUZBtLrMO-17" target="5Zqqs3O7W4hkUZBtLrMO-23">
          <mxGeometry relative="1" as="geometry">
            <mxPoint x="70" y="949.5" as="sourcePoint" />
            <mxPoint x="365" y="949.5" as="targetPoint" />
          </mxGeometry>
        </mxCell>
        <mxCell id="5Zqqs3O7W4hkUZBtLrMO-37" value="&lt;div&gt;HTTP GET&lt;/div&gt;&lt;div&gt;Query: &lt;span&gt;&lt;span&gt;&lt;span data-path=&quot;/api/v1.0/Mashup&quot; class=&quot;opblock-summary-path&quot;&gt;&lt;a class=&quot;nostyle&quot;&gt;&lt;span&gt;mbid=5b11f4ce-a62d-471e-81fc-a69a8278c7da&lt;/span&gt;&lt;/a&gt;&lt;/span&gt;&lt;/span&gt;&lt;/span&gt;&lt;/div&gt;" style="edgeLabel;html=1;align=center;verticalAlign=middle;resizable=0;points=[];" vertex="1" connectable="0" parent="5Zqqs3O7W4hkUZBtLrMO-34">
          <mxGeometry x="0.0441" relative="1" as="geometry">
            <mxPoint as="offset" />
          </mxGeometry>
        </mxCell>
        <mxCell id="5Zqqs3O7W4hkUZBtLrMO-17" value="Actor" style="shape=umlActor;verticalLabelPosition=bottom;verticalAlign=top;html=1;outlineConnect=0;" vertex="1" parent="1">
          <mxGeometry x="70" y="920" width="30" height="60" as="geometry" />
        </mxCell>
        <mxCell id="5Zqqs3O7W4hkUZBtLrMO-38" style="edgeStyle=orthogonalEdgeStyle;rounded=0;orthogonalLoop=1;jettySize=auto;html=1;entryX=0;entryY=0.25;entryDx=0;entryDy=0;exitX=1;exitY=0.25;exitDx=0;exitDy=0;" edge="1" parent="1">
          <mxGeometry relative="1" as="geometry">
            <mxPoint x="480" y="920" as="sourcePoint" />
            <mxPoint x="559.9999999999999" y="920" as="targetPoint" />
          </mxGeometry>
        </mxCell>
        <mxCell id="5Zqqs3O7W4hkUZBtLrMO-39" value="&lt;div&gt;Id&lt;/div&gt;&lt;div&gt;[5b11f...]&lt;br&gt;&lt;/div&gt;" style="edgeLabel;html=1;align=center;verticalAlign=middle;resizable=0;points=[];" vertex="1" connectable="0" parent="5Zqqs3O7W4hkUZBtLrMO-38">
          <mxGeometry x="-0.0667" y="-2" relative="1" as="geometry">
            <mxPoint y="-2" as="offset" />
          </mxGeometry>
        </mxCell>
        <mxCell id="5Zqqs3O7W4hkUZBtLrMO-23" value="&lt;div&gt;&lt;span&gt;&lt;span&gt;&lt;span data-path=&quot;/api/v1.0/Mashup&quot; class=&quot;opblock-summary-path&quot;&gt;&lt;a class=&quot;nostyle&quot;&gt;&lt;span&gt;/api&lt;wbr&gt;/v1.0&lt;wbr&gt;/Mashup&lt;/span&gt;&lt;/a&gt;&lt;/span&gt;&lt;/span&gt;&lt;/span&gt;&lt;/div&gt;&lt;div&gt;&lt;span&gt;&lt;span&gt;&lt;span data-path=&quot;/api/v1.0/Mashup&quot; class=&quot;opblock-summary-path&quot;&gt;&lt;a class=&quot;nostyle&quot;&gt;&lt;span&gt;[API Controller]&lt;br&gt;&lt;/span&gt;&lt;/a&gt;&lt;/span&gt;&lt;/span&gt;&lt;/span&gt;&lt;/div&gt;" style="rounded=1;whiteSpace=wrap;html=1;absoluteArcSize=1;arcSize=14;strokeWidth=2;" vertex="1" parent="1">
          <mxGeometry x="380" y="900" width="100" height="100" as="geometry" />
        </mxCell>
        <mxCell id="5Zqqs3O7W4hkUZBtLrMO-40" style="edgeStyle=orthogonalEdgeStyle;rounded=0;orthogonalLoop=1;jettySize=auto;html=1;entryX=0;entryY=0.25;entryDx=0;entryDy=0;exitX=1.013;exitY=0.277;exitDx=0;exitDy=0;exitPerimeter=0;" edge="1" parent="1" source="5Zqqs3O7W4hkUZBtLrMO-24" target="5Zqqs3O7W4hkUZBtLrMO-25">
          <mxGeometry relative="1" as="geometry">
            <mxPoint x="680" y="925" as="sourcePoint" />
            <Array as="points">
              <mxPoint x="661" y="925" />
            </Array>
          </mxGeometry>
        </mxCell>
        <mxCell id="5Zqqs3O7W4hkUZBtLrMO-41" value="&lt;div&gt;Id&lt;/div&gt;&lt;div&gt;[5b11f...]&lt;br&gt;&lt;/div&gt;" style="edgeLabel;html=1;align=center;verticalAlign=middle;resizable=0;points=[];" vertex="1" connectable="0" parent="5Zqqs3O7W4hkUZBtLrMO-40">
          <mxGeometry x="-0.0667" y="2" relative="1" as="geometry">
            <mxPoint x="3" y="-3" as="offset" />
          </mxGeometry>
        </mxCell>
        <mxCell id="5Zqqs3O7W4hkUZBtLrMO-62" style="edgeStyle=orthogonalEdgeStyle;rounded=0;orthogonalLoop=1;jettySize=auto;html=1;entryX=1;entryY=0.5;entryDx=0;entryDy=0;" edge="1" parent="1" source="5Zqqs3O7W4hkUZBtLrMO-24" target="5Zqqs3O7W4hkUZBtLrMO-23">
          <mxGeometry relative="1" as="geometry" />
        </mxCell>
        <mxCell id="5Zqqs3O7W4hkUZBtLrMO-63" value="Mashup" style="edgeLabel;html=1;align=center;verticalAlign=middle;resizable=0;points=[];" vertex="1" connectable="0" parent="5Zqqs3O7W4hkUZBtLrMO-62">
          <mxGeometry x="0.0635" relative="1" as="geometry">
            <mxPoint as="offset" />
          </mxGeometry>
        </mxCell>
        <mxCell id="5Zqqs3O7W4hkUZBtLrMO-24" value="&lt;div&gt;Mashup&lt;/div&gt;&lt;div&gt;[Service]&lt;br&gt;&lt;/div&gt;" style="rounded=1;whiteSpace=wrap;html=1;absoluteArcSize=1;arcSize=14;strokeWidth=2;" vertex="1" parent="1">
          <mxGeometry x="560" y="900" width="100" height="100" as="geometry" />
        </mxCell>
        <mxCell id="5Zqqs3O7W4hkUZBtLrMO-45" style="edgeStyle=orthogonalEdgeStyle;rounded=0;orthogonalLoop=1;jettySize=auto;html=1;entryX=1;entryY=0.5;entryDx=0;entryDy=0;" edge="1" parent="1" source="5Zqqs3O7W4hkUZBtLrMO-25" target="5Zqqs3O7W4hkUZBtLrMO-24">
          <mxGeometry relative="1" as="geometry">
            <mxPoint x="680" y="950" as="targetPoint" />
          </mxGeometry>
        </mxCell>
        <mxCell id="5Zqqs3O7W4hkUZBtLrMO-46" value="&lt;div&gt;MusicBrainz&lt;/div&gt;&lt;div&gt;Data&lt;br&gt;&lt;/div&gt;" style="edgeLabel;html=1;align=center;verticalAlign=middle;resizable=0;points=[];" vertex="1" connectable="0" parent="5Zqqs3O7W4hkUZBtLrMO-45">
          <mxGeometry x="-0.0111" relative="1" as="geometry">
            <mxPoint as="offset" />
          </mxGeometry>
        </mxCell>
        <mxCell id="5Zqqs3O7W4hkUZBtLrMO-25" value="&lt;div&gt;MusicBrainz&lt;/div&gt;&lt;div&gt;[Service]&lt;br&gt;&lt;/div&gt;" style="rounded=1;whiteSpace=wrap;html=1;absoluteArcSize=1;arcSize=14;strokeWidth=2;" vertex="1" parent="1">
          <mxGeometry x="740" y="900" width="100" height="100" as="geometry" />
        </mxCell>
        <mxCell id="5Zqqs3O7W4hkUZBtLrMO-43" style="edgeStyle=orthogonalEdgeStyle;rounded=0;orthogonalLoop=1;jettySize=auto;html=1;entryX=0.5;entryY=1;entryDx=0;entryDy=0;" edge="1" parent="1" source="5Zqqs3O7W4hkUZBtLrMO-26" target="5Zqqs3O7W4hkUZBtLrMO-25">
          <mxGeometry relative="1" as="geometry" />
        </mxCell>
        <mxCell id="5Zqqs3O7W4hkUZBtLrMO-44" value="&lt;div&gt;MusicBrainz&lt;/div&gt;&lt;div&gt;Data&lt;br&gt;&lt;/div&gt;" style="edgeLabel;html=1;align=center;verticalAlign=middle;resizable=0;points=[];" vertex="1" connectable="0" parent="5Zqqs3O7W4hkUZBtLrMO-43">
          <mxGeometry x="-0.1692" y="1" relative="1" as="geometry">
            <mxPoint as="offset" />
          </mxGeometry>
        </mxCell>
        <mxCell id="5Zqqs3O7W4hkUZBtLrMO-77" style="edgeStyle=orthogonalEdgeStyle;rounded=0;orthogonalLoop=1;jettySize=auto;html=1;" edge="1" parent="1" source="5Zqqs3O7W4hkUZBtLrMO-26" target="5Zqqs3O7W4hkUZBtLrMO-30">
          <mxGeometry relative="1" as="geometry" />
        </mxCell>
        <mxCell id="5Zqqs3O7W4hkUZBtLrMO-78" value="No" style="edgeLabel;html=1;align=center;verticalAlign=middle;resizable=0;points=[];" vertex="1" connectable="0" parent="5Zqqs3O7W4hkUZBtLrMO-77">
          <mxGeometry x="-0.8657" y="1" relative="1" as="geometry">
            <mxPoint as="offset" />
          </mxGeometry>
        </mxCell>
        <mxCell id="5Zqqs3O7W4hkUZBtLrMO-80" value="MusicBrains Id" style="edgeLabel;html=1;align=center;verticalAlign=middle;resizable=0;points=[];" vertex="1" connectable="0" parent="5Zqqs3O7W4hkUZBtLrMO-77">
          <mxGeometry x="0.22" y="-1" relative="1" as="geometry">
            <mxPoint as="offset" />
          </mxGeometry>
        </mxCell>
        <mxCell id="5Zqqs3O7W4hkUZBtLrMO-26" value="IsCached?" style="strokeWidth=2;html=1;shape=mxgraph.flowchart.decision;whiteSpace=wrap;" vertex="1" parent="1">
          <mxGeometry x="890" y="980" width="100" height="100" as="geometry" />
        </mxCell>
        <mxCell id="5Zqqs3O7W4hkUZBtLrMO-27" value="Cache" style="strokeWidth=2;html=1;shape=mxgraph.flowchart.database;whiteSpace=wrap;" vertex="1" parent="1">
          <mxGeometry x="1000" y="1210" width="100" height="90" as="geometry" />
        </mxCell>
        <mxCell id="5Zqqs3O7W4hkUZBtLrMO-28" style="edgeStyle=orthogonalEdgeStyle;rounded=0;orthogonalLoop=1;jettySize=auto;html=1;entryX=0.5;entryY=0;entryDx=0;entryDy=0;entryPerimeter=0;" edge="1" parent="1" source="5Zqqs3O7W4hkUZBtLrMO-25" target="5Zqqs3O7W4hkUZBtLrMO-26">
          <mxGeometry relative="1" as="geometry" />
        </mxCell>
        <mxCell id="5Zqqs3O7W4hkUZBtLrMO-42" value="Check Cache" style="edgeLabel;html=1;align=center;verticalAlign=middle;resizable=0;points=[];" vertex="1" connectable="0" parent="5Zqqs3O7W4hkUZBtLrMO-28">
          <mxGeometry x="-0.3385" relative="1" as="geometry">
            <mxPoint as="offset" />
          </mxGeometry>
        </mxCell>
        <mxCell id="5Zqqs3O7W4hkUZBtLrMO-29" style="edgeStyle=orthogonalEdgeStyle;rounded=0;orthogonalLoop=1;jettySize=auto;html=1;entryX=0.5;entryY=0;entryDx=0;entryDy=0;entryPerimeter=0;exitX=0.5;exitY=1;exitDx=0;exitDy=0;exitPerimeter=0;" edge="1" parent="1" source="5Zqqs3O7W4hkUZBtLrMO-26" target="5Zqqs3O7W4hkUZBtLrMO-27">
          <mxGeometry relative="1" as="geometry">
            <Array as="points">
              <mxPoint x="940" y="1100" />
              <mxPoint x="1050" y="1100" />
            </Array>
          </mxGeometry>
        </mxCell>
        <mxCell id="5Zqqs3O7W4hkUZBtLrMO-32" value="Yes" style="edgeLabel;html=1;align=center;verticalAlign=middle;resizable=0;points=[];" vertex="1" connectable="0" parent="5Zqqs3O7W4hkUZBtLrMO-29">
          <mxGeometry x="-0.5889" y="-1" relative="1" as="geometry">
            <mxPoint x="-29" y="-11" as="offset" />
          </mxGeometry>
        </mxCell>
        <mxCell id="5Zqqs3O7W4hkUZBtLrMO-79" value="CacheKey" style="edgeLabel;html=1;align=center;verticalAlign=middle;resizable=0;points=[];" vertex="1" connectable="0" parent="5Zqqs3O7W4hkUZBtLrMO-29">
          <mxGeometry x="0.255" y="-1" relative="1" as="geometry">
            <mxPoint as="offset" />
          </mxGeometry>
        </mxCell>
        <mxCell id="5Zqqs3O7W4hkUZBtLrMO-30" value="MusicBrainz" style="ellipse;shape=cloud;whiteSpace=wrap;html=1;" vertex="1" parent="1">
          <mxGeometry x="1130" y="990" width="120" height="80" as="geometry" />
        </mxCell>
        <mxCell id="5Zqqs3O7W4hkUZBtLrMO-60" style="edgeStyle=orthogonalEdgeStyle;rounded=0;orthogonalLoop=1;jettySize=auto;html=1;entryX=1;entryY=0.75;entryDx=0;entryDy=0;jumpStyle=arc;" edge="1" parent="1" source="5Zqqs3O7W4hkUZBtLrMO-48" target="5Zqqs3O7W4hkUZBtLrMO-24">
          <mxGeometry relative="1" as="geometry" />
        </mxCell>
        <mxCell id="5Zqqs3O7W4hkUZBtLrMO-61" value="Description" style="edgeLabel;html=1;align=center;verticalAlign=middle;resizable=0;points=[];" vertex="1" connectable="0" parent="5Zqqs3O7W4hkUZBtLrMO-60">
          <mxGeometry x="0.2593" y="-1" relative="1" as="geometry">
            <mxPoint x="19" y="-8" as="offset" />
          </mxGeometry>
        </mxCell>
        <mxCell id="5Zqqs3O7W4hkUZBtLrMO-48" value="&lt;div&gt;Wikipedia&lt;/div&gt;&lt;div&gt;[Service]&lt;br&gt;&lt;/div&gt;" style="rounded=1;whiteSpace=wrap;html=1;absoluteArcSize=1;arcSize=14;strokeWidth=2;" vertex="1" parent="1">
          <mxGeometry x="700" y="1110" width="100" height="100" as="geometry" />
        </mxCell>
        <mxCell id="5Zqqs3O7W4hkUZBtLrMO-58" style="edgeStyle=orthogonalEdgeStyle;rounded=0;orthogonalLoop=1;jettySize=auto;html=1;entryX=1;entryY=1;entryDx=0;entryDy=0;" edge="1" parent="1" source="5Zqqs3O7W4hkUZBtLrMO-49" target="5Zqqs3O7W4hkUZBtLrMO-24">
          <mxGeometry relative="1" as="geometry">
            <Array as="points">
              <mxPoint x="670" y="1260" />
              <mxPoint x="670" y="1000" />
            </Array>
          </mxGeometry>
        </mxCell>
        <mxCell id="5Zqqs3O7W4hkUZBtLrMO-59" value="Wikipedia link" style="edgeLabel;html=1;align=center;verticalAlign=middle;resizable=0;points=[];" vertex="1" connectable="0" parent="5Zqqs3O7W4hkUZBtLrMO-58">
          <mxGeometry x="-0.1577" relative="1" as="geometry">
            <mxPoint x="-10" y="28" as="offset" />
          </mxGeometry>
        </mxCell>
        <mxCell id="5Zqqs3O7W4hkUZBtLrMO-49" value="&lt;div&gt;WikiData&lt;/div&gt;&lt;div&gt;[Service]&lt;br&gt;&lt;/div&gt;" style="rounded=1;whiteSpace=wrap;html=1;absoluteArcSize=1;arcSize=14;strokeWidth=2;" vertex="1" parent="1">
          <mxGeometry x="560" y="1210" width="100" height="100" as="geometry" />
        </mxCell>
        <mxCell id="5Zqqs3O7W4hkUZBtLrMO-53" style="edgeStyle=orthogonalEdgeStyle;rounded=0;orthogonalLoop=1;jettySize=auto;html=1;entryX=0.5;entryY=0;entryDx=0;entryDy=0;jumpStyle=arc;" edge="1" parent="1" source="5Zqqs3O7W4hkUZBtLrMO-51" target="5Zqqs3O7W4hkUZBtLrMO-48">
          <mxGeometry relative="1" as="geometry" />
        </mxCell>
        <mxCell id="5Zqqs3O7W4hkUZBtLrMO-56" value="Yes" style="edgeLabel;html=1;align=center;verticalAlign=middle;resizable=0;points=[];" vertex="1" connectable="0" parent="5Zqqs3O7W4hkUZBtLrMO-53">
          <mxGeometry x="-0.1167" y="1" relative="1" as="geometry">
            <mxPoint as="offset" />
          </mxGeometry>
        </mxCell>
        <mxCell id="5Zqqs3O7W4hkUZBtLrMO-55" style="edgeStyle=orthogonalEdgeStyle;rounded=0;orthogonalLoop=1;jettySize=auto;html=1;" edge="1" parent="1" source="5Zqqs3O7W4hkUZBtLrMO-51" target="5Zqqs3O7W4hkUZBtLrMO-49">
          <mxGeometry relative="1" as="geometry" />
        </mxCell>
        <mxCell id="5Zqqs3O7W4hkUZBtLrMO-57" value="No" style="edgeLabel;html=1;align=center;verticalAlign=middle;resizable=0;points=[];" vertex="1" connectable="0" parent="5Zqqs3O7W4hkUZBtLrMO-55">
          <mxGeometry x="-0.5164" y="-2" relative="1" as="geometry">
            <mxPoint as="offset" />
          </mxGeometry>
        </mxCell>
        <mxCell id="5Zqqs3O7W4hkUZBtLrMO-51" value="Has Wikipedia link?" style="strokeWidth=2;html=1;shape=mxgraph.flowchart.decision;whiteSpace=wrap;" vertex="1" parent="1">
          <mxGeometry x="560" y="1030" width="100" height="100" as="geometry" />
        </mxCell>
        <mxCell id="5Zqqs3O7W4hkUZBtLrMO-52" style="edgeStyle=orthogonalEdgeStyle;rounded=0;orthogonalLoop=1;jettySize=auto;html=1;entryX=0.5;entryY=0;entryDx=0;entryDy=0;entryPerimeter=0;" edge="1" parent="1" source="5Zqqs3O7W4hkUZBtLrMO-24" target="5Zqqs3O7W4hkUZBtLrMO-51">
          <mxGeometry relative="1" as="geometry" />
        </mxCell>
        <mxCell id="5Zqqs3O7W4hkUZBtLrMO-64" value="&lt;div&gt;CoverArt&lt;/div&gt;&lt;div&gt;[Service]&lt;br&gt;&lt;/div&gt;" style="rounded=1;whiteSpace=wrap;html=1;absoluteArcSize=1;arcSize=14;strokeWidth=2;" vertex="1" parent="1">
          <mxGeometry x="410" y="1210" width="100" height="100" as="geometry" />
        </mxCell>
        <mxCell id="5Zqqs3O7W4hkUZBtLrMO-65" value="Wikipedia" style="ellipse;shape=cloud;whiteSpace=wrap;html=1;" vertex="1" parent="1">
          <mxGeometry x="810" y="1260" width="120" height="80" as="geometry" />
        </mxCell>
        <mxCell id="5Zqqs3O7W4hkUZBtLrMO-66" value="&lt;div&gt;Wikidata&lt;/div&gt;" style="ellipse;shape=cloud;whiteSpace=wrap;html=1;" vertex="1" parent="1">
          <mxGeometry x="660" y="1490" width="120" height="80" as="geometry" />
        </mxCell>
        <mxCell id="5Zqqs3O7W4hkUZBtLrMO-68" style="edgeStyle=orthogonalEdgeStyle;rounded=0;orthogonalLoop=1;jettySize=auto;html=1;entryX=0.4;entryY=0.1;entryDx=0;entryDy=0;entryPerimeter=0;exitX=0.5;exitY=1;exitDx=0;exitDy=0;exitPerimeter=0;" edge="1" parent="1" source="5Zqqs3O7W4hkUZBtLrMO-89" target="5Zqqs3O7W4hkUZBtLrMO-66">
          <mxGeometry relative="1" as="geometry" />
        </mxCell>
        <mxCell id="5Zqqs3O7W4hkUZBtLrMO-70" value="WikiData ID" style="edgeLabel;html=1;align=center;verticalAlign=middle;resizable=0;points=[];" vertex="1" connectable="0" parent="5Zqqs3O7W4hkUZBtLrMO-68">
          <mxGeometry x="-0.1618" y="2" relative="1" as="geometry">
            <mxPoint x="1" as="offset" />
          </mxGeometry>
        </mxCell>
        <mxCell id="5Zqqs3O7W4hkUZBtLrMO-95" value="No" style="edgeLabel;html=1;align=center;verticalAlign=middle;resizable=0;points=[];" vertex="1" connectable="0" parent="5Zqqs3O7W4hkUZBtLrMO-68">
          <mxGeometry x="-0.78" y="1" relative="1" as="geometry">
            <mxPoint as="offset" />
          </mxGeometry>
        </mxCell>
        <mxCell id="5Zqqs3O7W4hkUZBtLrMO-81" value="IsCached?" style="strokeWidth=2;html=1;shape=mxgraph.flowchart.decision;whiteSpace=wrap;" vertex="1" parent="1">
          <mxGeometry x="850" y="1110" width="100" height="100" as="geometry" />
        </mxCell>
        <mxCell id="5Zqqs3O7W4hkUZBtLrMO-82" style="edgeStyle=orthogonalEdgeStyle;rounded=0;orthogonalLoop=1;jettySize=auto;html=1;entryX=0.658;entryY=0.203;entryDx=0;entryDy=0;entryPerimeter=0;" edge="1" parent="1" source="5Zqqs3O7W4hkUZBtLrMO-81" target="5Zqqs3O7W4hkUZBtLrMO-65">
          <mxGeometry relative="1" as="geometry" />
        </mxCell>
        <mxCell id="5Zqqs3O7W4hkUZBtLrMO-83" value="No" style="edgeLabel;html=1;align=center;verticalAlign=middle;resizable=0;points=[];" vertex="1" connectable="0" parent="5Zqqs3O7W4hkUZBtLrMO-82">
          <mxGeometry x="-0.8247" y="1" relative="1" as="geometry">
            <mxPoint as="offset" />
          </mxGeometry>
        </mxCell>
        <mxCell id="5Zqqs3O7W4hkUZBtLrMO-84" value="Page Title " style="edgeLabel;html=1;align=center;verticalAlign=middle;resizable=0;points=[];" vertex="1" connectable="0" parent="5Zqqs3O7W4hkUZBtLrMO-82">
          <mxGeometry x="0.492" y="-1" relative="1" as="geometry">
            <mxPoint as="offset" />
          </mxGeometry>
        </mxCell>
        <mxCell id="5Zqqs3O7W4hkUZBtLrMO-85" style="edgeStyle=orthogonalEdgeStyle;rounded=0;orthogonalLoop=1;jettySize=auto;html=1;entryX=0;entryY=0.15;entryDx=0;entryDy=0;entryPerimeter=0;" edge="1" parent="1" source="5Zqqs3O7W4hkUZBtLrMO-81" target="5Zqqs3O7W4hkUZBtLrMO-27">
          <mxGeometry relative="1" as="geometry" />
        </mxCell>
        <mxCell id="5Zqqs3O7W4hkUZBtLrMO-86" value="Yes" style="edgeLabel;html=1;align=center;verticalAlign=middle;resizable=0;points=[];" vertex="1" connectable="0" parent="5Zqqs3O7W4hkUZBtLrMO-85">
          <mxGeometry x="-0.7488" relative="1" as="geometry">
            <mxPoint x="-4" as="offset" />
          </mxGeometry>
        </mxCell>
        <mxCell id="5Zqqs3O7W4hkUZBtLrMO-87" value="CacheKey" style="edgeLabel;html=1;align=center;verticalAlign=middle;resizable=0;points=[];" vertex="1" connectable="0" parent="5Zqqs3O7W4hkUZBtLrMO-85">
          <mxGeometry x="-0.119" y="1" relative="1" as="geometry">
            <mxPoint as="offset" />
          </mxGeometry>
        </mxCell>
        <mxCell id="5Zqqs3O7W4hkUZBtLrMO-88" style="edgeStyle=orthogonalEdgeStyle;rounded=0;orthogonalLoop=1;jettySize=auto;html=1;entryX=0;entryY=0.5;entryDx=0;entryDy=0;entryPerimeter=0;" edge="1" parent="1" source="5Zqqs3O7W4hkUZBtLrMO-48" target="5Zqqs3O7W4hkUZBtLrMO-81">
          <mxGeometry relative="1" as="geometry" />
        </mxCell>
        <mxCell id="5Zqqs3O7W4hkUZBtLrMO-89" value="IsCached?" style="strokeWidth=2;html=1;shape=mxgraph.flowchart.decision;whiteSpace=wrap;" vertex="1" parent="1">
          <mxGeometry x="660" y="1340" width="100" height="100" as="geometry" />
        </mxCell>
        <mxCell id="5Zqqs3O7W4hkUZBtLrMO-90" value="IsCached?" style="strokeWidth=2;html=1;shape=mxgraph.flowchart.decision;whiteSpace=wrap;" vertex="1" parent="1">
          <mxGeometry x="410" y="1430" width="100" height="100" as="geometry" />
        </mxCell>
        <mxCell id="5Zqqs3O7W4hkUZBtLrMO-91" style="edgeStyle=orthogonalEdgeStyle;rounded=0;orthogonalLoop=1;jettySize=auto;html=1;entryX=0;entryY=0.5;entryDx=0;entryDy=0;entryPerimeter=0;" edge="1" parent="1" source="5Zqqs3O7W4hkUZBtLrMO-49" target="5Zqqs3O7W4hkUZBtLrMO-89">
          <mxGeometry relative="1" as="geometry" />
        </mxCell>
        <mxCell id="5Zqqs3O7W4hkUZBtLrMO-92" style="edgeStyle=orthogonalEdgeStyle;rounded=0;orthogonalLoop=1;jettySize=auto;html=1;exitX=1;exitY=0.5;exitDx=0;exitDy=0;exitPerimeter=0;entryX=0.5;entryY=1;entryDx=0;entryDy=0;entryPerimeter=0;" edge="1" parent="1" source="5Zqqs3O7W4hkUZBtLrMO-89" target="5Zqqs3O7W4hkUZBtLrMO-27">
          <mxGeometry relative="1" as="geometry" />
        </mxCell>
        <mxCell id="5Zqqs3O7W4hkUZBtLrMO-93" value="Yes" style="edgeLabel;html=1;align=center;verticalAlign=middle;resizable=0;points=[];" vertex="1" connectable="0" parent="5Zqqs3O7W4hkUZBtLrMO-92">
          <mxGeometry x="-0.8263" relative="1" as="geometry">
            <mxPoint x="-13" as="offset" />
          </mxGeometry>
        </mxCell>
        <mxCell id="5Zqqs3O7W4hkUZBtLrMO-94" value="CacheKey" style="edgeLabel;html=1;align=center;verticalAlign=middle;resizable=0;points=[];" vertex="1" connectable="0" parent="5Zqqs3O7W4hkUZBtLrMO-92">
          <mxGeometry x="-0.0263" y="-2" relative="1" as="geometry">
            <mxPoint as="offset" />
          </mxGeometry>
        </mxCell>
        <mxCell id="5Zqqs3O7W4hkUZBtLrMO-96" style="edgeStyle=orthogonalEdgeStyle;rounded=0;orthogonalLoop=1;jettySize=auto;html=1;entryX=0.5;entryY=0;entryDx=0;entryDy=0;entryPerimeter=0;" edge="1" parent="1" source="5Zqqs3O7W4hkUZBtLrMO-64" target="5Zqqs3O7W4hkUZBtLrMO-90">
          <mxGeometry relative="1" as="geometry" />
        </mxCell>
        <mxCell id="5Zqqs3O7W4hkUZBtLrMO-97" value="&lt;div&gt;Wikidata&lt;/div&gt;" style="ellipse;shape=cloud;whiteSpace=wrap;html=1;" vertex="1" parent="1">
          <mxGeometry x="412" y="1590" width="120" height="80" as="geometry" />
        </mxCell>
        <mxCell id="5Zqqs3O7W4hkUZBtLrMO-98" style="edgeStyle=orthogonalEdgeStyle;rounded=0;orthogonalLoop=1;jettySize=auto;html=1;entryX=0.4;entryY=0.1;entryDx=0;entryDy=0;entryPerimeter=0;" edge="1" parent="1" source="5Zqqs3O7W4hkUZBtLrMO-90" target="5Zqqs3O7W4hkUZBtLrMO-97">
          <mxGeometry relative="1" as="geometry" />
        </mxCell>
        <mxCell id="5Zqqs3O7W4hkUZBtLrMO-99" value="No" style="edgeLabel;html=1;align=center;verticalAlign=middle;resizable=0;points=[];" vertex="1" connectable="0" parent="5Zqqs3O7W4hkUZBtLrMO-98">
          <mxGeometry x="-0.61" y="-2" relative="1" as="geometry">
            <mxPoint as="offset" />
          </mxGeometry>
        </mxCell>
        <mxCell id="5Zqqs3O7W4hkUZBtLrMO-100" value="MusicBrainz ID" style="edgeLabel;html=1;align=center;verticalAlign=middle;resizable=0;points=[];" vertex="1" connectable="0" parent="5Zqqs3O7W4hkUZBtLrMO-98">
          <mxGeometry x="0.4686" relative="1" as="geometry">
            <mxPoint as="offset" />
          </mxGeometry>
        </mxCell>
        <mxCell id="5Zqqs3O7W4hkUZBtLrMO-101" style="edgeStyle=orthogonalEdgeStyle;rounded=0;orthogonalLoop=1;jettySize=auto;html=1;entryX=0.658;entryY=1.011;entryDx=0;entryDy=0;entryPerimeter=0;jumpStyle=arc;" edge="1" parent="1" source="5Zqqs3O7W4hkUZBtLrMO-90" target="5Zqqs3O7W4hkUZBtLrMO-27">
          <mxGeometry relative="1" as="geometry" />
        </mxCell>
        <mxCell id="5Zqqs3O7W4hkUZBtLrMO-102" value="Yes" style="edgeLabel;html=1;align=center;verticalAlign=middle;resizable=0;points=[];" vertex="1" connectable="0" parent="5Zqqs3O7W4hkUZBtLrMO-101">
          <mxGeometry x="-0.969" y="1" relative="1" as="geometry">
            <mxPoint as="offset" />
          </mxGeometry>
        </mxCell>
        <mxCell id="5Zqqs3O7W4hkUZBtLrMO-103" value="CacheKey" style="edgeLabel;html=1;align=center;verticalAlign=middle;resizable=0;points=[];" vertex="1" connectable="0" parent="5Zqqs3O7W4hkUZBtLrMO-101">
          <mxGeometry x="0.1568" y="-1" relative="1" as="geometry">
            <mxPoint as="offset" />
          </mxGeometry>
        </mxCell>
        <mxCell id="5Zqqs3O7W4hkUZBtLrMO-107" style="edgeStyle=orthogonalEdgeStyle;rounded=0;orthogonalLoop=1;jettySize=auto;html=1;exitX=0.086;exitY=0.994;exitDx=0;exitDy=0;entryX=1;entryY=0.2;entryDx=0;entryDy=0;entryPerimeter=0;exitPerimeter=0;" edge="1" parent="1" source="5Zqqs3O7W4hkUZBtLrMO-24" target="5Zqqs3O7W4hkUZBtLrMO-64">
          <mxGeometry relative="1" as="geometry">
            <Array as="points">
              <mxPoint x="569" y="1040" />
              <mxPoint x="550" y="1040" />
              <mxPoint x="550" y="1230" />
            </Array>
          </mxGeometry>
        </mxCell>
        <mxCell id="5Zqqs3O7W4hkUZBtLrMO-110" value="MusicBrainz ID" style="edgeLabel;html=1;align=center;verticalAlign=middle;resizable=0;points=[];" vertex="1" connectable="0" parent="5Zqqs3O7W4hkUZBtLrMO-107">
          <mxGeometry x="-0.3071" y="1" relative="1" as="geometry">
            <mxPoint x="-1" y="49" as="offset" />
          </mxGeometry>
        </mxCell>
        <mxCell id="5Zqqs3O7W4hkUZBtLrMO-108" style="edgeStyle=orthogonalEdgeStyle;rounded=0;orthogonalLoop=1;jettySize=auto;html=1;entryX=0.7;entryY=0;entryDx=0;entryDy=0;entryPerimeter=0;startArrow=classic;startFill=1;endArrow=none;endFill=0;" edge="1" parent="1" source="5Zqqs3O7W4hkUZBtLrMO-24" target="5Zqqs3O7W4hkUZBtLrMO-64">
          <mxGeometry relative="1" as="geometry">
            <Array as="points">
              <mxPoint x="500" y="990" />
              <mxPoint x="500" y="1170" />
              <mxPoint x="480" y="1170" />
            </Array>
          </mxGeometry>
        </mxCell>
        <mxCell id="5Zqqs3O7W4hkUZBtLrMO-109" value="&lt;div&gt;ImageURL&lt;/div&gt;" style="edgeLabel;html=1;align=center;verticalAlign=middle;resizable=0;points=[];" vertex="1" connectable="0" parent="5Zqqs3O7W4hkUZBtLrMO-108">
          <mxGeometry x="-0.2687" y="1" relative="1" as="geometry">
            <mxPoint as="offset" />
          </mxGeometry>
        </mxCell>
      </root>
    </mxGraphModel>
  </diagram>
</mxfile>
